<?xml version="1.0" encoding="UTF-8"?>
<!DOCTYPE svg PUBLIC "-//W3C//DTD SVG 1.1//EN" "http://www.w3.org/Graphics/SVG/1.1/DTD/svg11.dtd">
<!-- Creator: CorelDRAW -->
<svg xmlns="http://www.w3.org/2000/svg" xml:space="preserve" width="850px" height="850px" version="1.1" style="shape-rendering:geometricPrecision; text-rendering:geometricPrecision; image-rendering:optimizeQuality; fill-rule:evenodd; clip-rule:evenodd"
viewBox="0 0 850 850"
 xmlns:xlink="http://www.w3.org/1999/xlink">
 <defs>
  <style type="text/css">
   <![CDATA[
    .fil0 {fill:#AADDE3}
    .fil1 {fill:#52ABB3}
   ]]>
  </style>
 </defs>
 <g id="Layer_x0020_1">
  <metadata id="CorelCorpID_0Corel-Layer"/>
  <circle class="fil0" cx="425" cy="425" r="425"/>
  <path class="fil1" d="M640 596l-172 0 18 70 44 0c5,0 8,4 8,8 0,4 -4,7 -8,7l-48 0 0 0 0 0 0 0 0 0 0 0 0 0 0 0 0 0 0 0 0 0 0 0 0 0 0 0 0 0 0 0 0 0 0 0 0 0 0 0 0 0 0 0 0 0 0 0 -1 0 0 0 0 0 0 0 0 0 0 0 0 0 0 0 0 0 0 0 0 0 0 0 0 0 0 0 0 0 0 0 0 0 0 0 0 0 0 0 0 0 0 0 0 0 0 0 0 0 0 0 0 0 0 0 0 0 0 0 0 0 0 0 0 0 0 0 0 0 0 0 -1 0 0 0 0 0 0 0 0 0 -110 0 0 0 0 0 0 0 0 0 -1 0 0 0 0 0 -49 0c-4,0 -7,-3 -7,-7 0,-4 3,-8 7,-8l44 0 17 -70 -171 0c-16,0 -29,-12 -29,-28l0 -33 0 -55 0 -203c0,-16 13,-29 29,-29l169 0 0 -19c0,-4 3,-7 7,-7l78 0c4,0 8,3 8,7l0 19 168 0c16,0 29,13 29,29l0 31c0,0 0,1 0,2 0,1 0,2 0,2l0 220c0,1 0,2 0,3 0,0 0,1 0,2l0 30c0,16 -13,29 -29,29zm14 -278l-158 0c-4,0 -8,-4 -8,-8 0,-4 4,-7 8,-7l158 0 0 -26c0,-8 -6,-14 -14,-14l-168 0 0 118 38 0c2,0 5,2 6,5 1,2 1,6 -1,8l-85 89c-1,2 -3,2 -5,2 0,0 0,0 0,0 -2,0 -4,0 -5,-2l-84 -89c-2,-2 -3,-6 -1,-8 1,-3 3,-5 6,-5l38 0 0 -118 -169 0c-8,0 -15,6 -15,14l0 196 160 0c4,0 7,3 7,7 0,5 -4,8 -7,8l-160 0 0 39 459 0 0 -209zm-190 -108l-78 0c-4,0 -8,-4 -8,-8 0,-4 4,-7 8,-7l78 0c4,0 7,3 7,7 0,4 -3,8 -7,8zm0 -27l-78 0c-4,0 -8,-3 -8,-7 0,-4 4,-7 8,-7l78 0c4,0 7,3 7,7 0,4 -3,7 -7,7zm-7 75c-1,-1 -1,-2 -1,-3 0,-1 0,-2 1,-2l0 -17 -64 0 0 19 0 133c0,5 -3,8 -7,8l-28 0 67 71 67 -71 -28 0c-4,0 -7,-3 -7,-7l0 -131zm164 311l-14 0c-4,0 -7,-3 -7,-7 0,-5 3,-8 7,-8l14 0c4,0 8,3 8,8 0,4 -4,7 -8,7zm-426 -27l0 25c0,8 7,14 15,14l430 0c8,0 14,-6 14,-14l0 -25 -459 0zm276 124l-18 -70 -57 0 -17 70 92 0z"/>
 </g>
</svg>
